<svg xmlns="http://www.w3.org/2000/svg" xmlns:xlink="http://www.w3.org/1999/xlink" width="180" zoomAndPan="magnify" viewBox="0 0 135 74.999997" height="100" preserveAspectRatio="xMidYMid meet" version="1.0"><defs><g/><clipPath id="febce9249c"><path d="M 8.082031 7.25 L 126.582031 7.25 L 126.582031 66.5 L 8.082031 66.5 Z M 8.082031 7.25 " clip-rule="nonzero"/></clipPath><clipPath id="f77be77fe4"><path d="M 7.957031 7.25 L 126.457031 7.25 L 126.457031 66.5 L 7.957031 66.5 Z M 7.957031 7.25 " clip-rule="nonzero"/></clipPath></defs><g clip-path="url(#febce9249c)"><path fill="#ffffff" d="M 124.199219 66.464844 L 10.472656 66.464844 C 9.152344 66.464844 8.082031 65.394531 8.082031 64.078125 L 8.082031 9.683594 C 8.082031 8.367188 9.152344 7.296875 10.472656 7.296875 L 124.199219 7.296875 C 125.519531 7.296875 126.589844 8.367188 126.589844 9.683594 L 126.589844 64.078125 C 126.589844 65.394531 125.519531 66.464844 124.199219 66.464844 Z M 124.199219 66.464844 " fill-opacity="1" fill-rule="nonzero"/></g><g clip-path="url(#f77be77fe4)"><path fill="#0067f4" d="M 125.773438 65.847656 L 8.644531 65.847656 L 8.644531 7.902344 L 125.773438 7.902344 Z M 7.988281 7.253906 L 7.988281 66.496094 L 126.425781 66.496094 L 126.425781 7.253906 L 7.988281 7.253906 " fill-opacity="1" fill-rule="nonzero"/></g><g fill="#0067f4" fill-opacity="1"><g transform="translate(48.313951, 45.61133)"><g><path d="M 8.3125 -0.703125 C 8.007812 -0.441406 7.640625 -0.238281 7.203125 -0.09375 C 6.773438 0.0390625 6.328125 0.109375 5.859375 0.109375 C 4.765625 0.109375 3.921875 -0.179688 3.328125 -0.765625 C 2.742188 -1.359375 2.453125 -2.191406 2.453125 -3.265625 L 2.453125 -10.296875 L 0.375 -10.296875 L 0.375 -11.625 L 2.453125 -11.625 L 2.453125 -14.15625 L 4.015625 -14.15625 L 4.015625 -11.625 L 7.5625 -11.625 L 7.5625 -10.296875 L 4.015625 -10.296875 L 4.015625 -3.359375 C 4.015625 -2.660156 4.1875 -2.128906 4.53125 -1.765625 C 4.882812 -1.410156 5.382812 -1.234375 6.03125 -1.234375 C 6.351562 -1.234375 6.664062 -1.285156 6.96875 -1.390625 C 7.269531 -1.492188 7.53125 -1.640625 7.75 -1.828125 Z M 8.3125 -0.703125 "/></g></g></g><g fill="#0067f4" fill-opacity="1"><g transform="translate(57.282399, 45.61133)"><g><path d="M 2.1875 -11.625 L 3.75 -11.625 L 3.75 0 L 2.1875 0 Z M 2.984375 -14.15625 C 2.660156 -14.15625 2.382812 -14.265625 2.15625 -14.484375 C 1.9375 -14.710938 1.828125 -14.976562 1.828125 -15.28125 C 1.828125 -15.582031 1.9375 -15.84375 2.15625 -16.0625 C 2.382812 -16.28125 2.660156 -16.390625 2.984375 -16.390625 C 3.304688 -16.390625 3.578125 -16.28125 3.796875 -16.0625 C 4.015625 -15.851562 4.125 -15.601562 4.125 -15.3125 C 4.125 -14.988281 4.015625 -14.710938 3.796875 -14.484375 C 3.578125 -14.265625 3.304688 -14.15625 2.984375 -14.15625 Z M 2.984375 -14.15625 "/></g></g></g><g fill="#0067f4" fill-opacity="1"><g transform="translate(63.224548, 45.61133)"><g><path d="M 16.6875 -11.703125 C 18.144531 -11.703125 19.285156 -11.28125 20.109375 -10.4375 C 20.941406 -9.601562 21.359375 -8.367188 21.359375 -6.734375 L 21.359375 0 L 19.796875 0 L 19.796875 -6.578125 C 19.796875 -7.785156 19.503906 -8.707031 18.921875 -9.34375 C 18.335938 -9.976562 17.515625 -10.296875 16.453125 -10.296875 C 15.242188 -10.296875 14.296875 -9.921875 13.609375 -9.171875 C 12.921875 -8.429688 12.578125 -7.40625 12.578125 -6.09375 L 12.578125 0 L 11 0 L 11 -6.578125 C 11 -7.785156 10.707031 -8.707031 10.125 -9.34375 C 9.539062 -9.976562 8.710938 -10.296875 7.640625 -10.296875 C 6.453125 -10.296875 5.503906 -9.921875 4.796875 -9.171875 C 4.097656 -8.429688 3.75 -7.40625 3.75 -6.09375 L 3.75 0 L 2.1875 0 L 2.1875 -11.625 L 3.6875 -11.625 L 3.6875 -9.5 C 4.101562 -10.207031 4.675781 -10.75 5.40625 -11.125 C 6.144531 -11.507812 6.992188 -11.703125 7.953125 -11.703125 C 8.921875 -11.703125 9.765625 -11.492188 10.484375 -11.078125 C 11.203125 -10.671875 11.734375 -10.0625 12.078125 -9.25 C 12.503906 -10.019531 13.117188 -10.617188 13.921875 -11.046875 C 14.734375 -11.484375 15.65625 -11.703125 16.6875 -11.703125 Z M 16.6875 -11.703125 "/></g></g></g><g fill="#0067f4" fill-opacity="1"><g transform="translate(86.661806, 45.61133)"><g><path d="M 12.3125 -5.328125 L 2.578125 -5.328125 C 2.671875 -4.117188 3.132812 -3.140625 3.96875 -2.390625 C 4.8125 -1.648438 5.875 -1.28125 7.15625 -1.28125 C 7.875 -1.28125 8.535156 -1.410156 9.140625 -1.671875 C 9.742188 -1.929688 10.269531 -2.3125 10.71875 -2.8125 L 11.59375 -1.796875 C 11.082031 -1.171875 10.4375 -0.695312 9.65625 -0.375 C 8.882812 -0.0507812 8.035156 0.109375 7.109375 0.109375 C 5.921875 0.109375 4.863281 -0.140625 3.9375 -0.640625 C 3.019531 -1.148438 2.300781 -1.851562 1.78125 -2.75 C 1.269531 -3.65625 1.015625 -4.675781 1.015625 -5.8125 C 1.015625 -6.945312 1.257812 -7.960938 1.75 -8.859375 C 2.25 -9.753906 2.925781 -10.453125 3.78125 -10.953125 C 4.644531 -11.453125 5.613281 -11.703125 6.6875 -11.703125 C 7.769531 -11.703125 8.738281 -11.453125 9.59375 -10.953125 C 10.445312 -10.453125 11.113281 -9.753906 11.59375 -8.859375 C 12.082031 -7.972656 12.328125 -6.957031 12.328125 -5.8125 Z M 6.6875 -10.359375 C 5.570312 -10.359375 4.632812 -10 3.875 -9.28125 C 3.113281 -8.570312 2.679688 -7.644531 2.578125 -6.5 L 10.828125 -6.5 C 10.722656 -7.644531 10.289062 -8.570312 9.53125 -9.28125 C 8.769531 -10 7.820312 -10.359375 6.6875 -10.359375 Z M 6.6875 -10.359375 "/></g></g></g><g fill="#0067f4" fill-opacity="1"><g transform="translate(100.004037, 45.61133)"><g><path d="M 5.296875 0.109375 C 4.359375 0.109375 3.457031 -0.0234375 2.59375 -0.296875 C 1.726562 -0.566406 1.054688 -0.910156 0.578125 -1.328125 L 1.28125 -2.5625 C 1.769531 -2.175781 2.378906 -1.863281 3.109375 -1.625 C 3.847656 -1.382812 4.613281 -1.265625 5.40625 -1.265625 C 6.46875 -1.265625 7.253906 -1.425781 7.765625 -1.75 C 8.273438 -2.082031 8.53125 -2.550781 8.53125 -3.15625 C 8.53125 -3.582031 8.390625 -3.914062 8.109375 -4.15625 C 7.828125 -4.40625 7.472656 -4.59375 7.046875 -4.71875 C 6.617188 -4.84375 6.050781 -4.960938 5.34375 -5.078125 C 4.40625 -5.253906 3.644531 -5.4375 3.0625 -5.625 C 2.488281 -5.8125 2 -6.125 1.59375 -6.5625 C 1.195312 -7 1 -7.609375 1 -8.390625 C 1 -9.367188 1.398438 -10.164062 2.203125 -10.78125 C 3.015625 -11.394531 4.144531 -11.703125 5.59375 -11.703125 C 6.34375 -11.703125 7.09375 -11.601562 7.84375 -11.40625 C 8.59375 -11.207031 9.210938 -10.945312 9.703125 -10.625 L 9.015625 -9.375 C 8.054688 -10.03125 6.914062 -10.359375 5.59375 -10.359375 C 4.59375 -10.359375 3.835938 -10.179688 3.328125 -9.828125 C 2.816406 -9.472656 2.5625 -9.007812 2.5625 -8.4375 C 2.5625 -8 2.703125 -7.644531 2.984375 -7.375 C 3.273438 -7.113281 3.632812 -6.921875 4.0625 -6.796875 C 4.488281 -6.671875 5.078125 -6.539062 5.828125 -6.40625 C 6.753906 -6.226562 7.5 -6.050781 8.0625 -5.875 C 8.625 -5.695312 9.101562 -5.394531 9.5 -4.96875 C 9.894531 -4.539062 10.09375 -3.953125 10.09375 -3.203125 C 10.09375 -2.179688 9.671875 -1.375 8.828125 -0.78125 C 7.984375 -0.1875 6.804688 0.109375 5.296875 0.109375 Z M 5.296875 0.109375 "/></g></g></g><g fill="#000000" fill-opacity="1"><g transform="translate(50.616003, 20.783421)"><g><path d="M -25.640625 0 L -28.625 0 L -17.019531 29.441406 L -13.015625 29.441406 L -1.410156 0 L -4.394531 0 L -7.304688 7.546875 L -22.730469 7.546875 Z M -8.214844 9.9375 L -14.886719 27.253906 L -15.109375 27.253906 L -21.804688 9.9375 Z M -8.214844 9.9375 "/></g></g></g></svg>