<svg xmlns="http://www.w3.org/2000/svg" xmlns:xlink="http://www.w3.org/1999/xlink" width="480" zoomAndPan="magnify" viewBox="0 0 360 106.499997" height="142" preserveAspectRatio="xMidYMid meet" version="1.0"><defs><g/><clipPath id="6d0f67e519"><path d="M 0.839844 0 L 359.15625 0 L 359.15625 106.003906 L 0.839844 106.003906 Z M 0.839844 0 " clip-rule="nonzero"/></clipPath><clipPath id="9aa23ee198"><path d="M 3.976562 2.199219 L 357.039062 2.199219 L 357.039062 103.722656 L 3.976562 103.722656 Z M 3.976562 2.199219 " clip-rule="nonzero"/></clipPath><clipPath id="65435fd355"><path d="M 23.496094 17.632812 L 180.261719 17.632812 L 180.261719 88.550781 L 23.496094 88.550781 Z M 23.496094 17.632812 " clip-rule="nonzero"/></clipPath></defs><g clip-path="url(#6d0f67e519)"><path fill="#ffffff" d="M 0.839844 0 L 359.160156 0 L 359.160156 113.46875 L 0.839844 113.46875 Z M 0.839844 0 " fill-opacity="1" fill-rule="nonzero"/><path fill="#ffffff" d="M 0.839844 0 L 359.160156 0 L 359.160156 106.003906 L 0.839844 106.003906 Z M 0.839844 0 " fill-opacity="1" fill-rule="nonzero"/><path fill="#ffffff" d="M 0.839844 0 L 359.160156 0 L 359.160156 106.003906 L 0.839844 106.003906 Z M 0.839844 0 " fill-opacity="1" fill-rule="nonzero"/></g><g clip-path="url(#9aa23ee198)"><path stroke-linecap="butt" transform="matrix(0.746249, 0, 0, 0.745981, 3.975179, 2.200123)" fill="none" stroke-linejoin="miter" d="M 0.00185388 -0.00121221 L 473.118239 -0.00121221 L 473.118239 136.092646 L 0.00185388 136.092646 L 0.00185388 -0.00121221 " stroke="#041f60" stroke-width="6" stroke-opacity="1" stroke-miterlimit="4"/></g><g clip-path="url(#65435fd355)"><path fill="#041f60" d="M 23.5 17.632812 L 180.257812 17.632812 L 180.257812 88.550781 L 23.5 88.550781 L 23.5 17.632812 " fill-opacity="1" fill-rule="nonzero"/></g><g fill="#ffffff" fill-opacity="1"><g transform="translate(74.990679, 63.669903)"><g><path d="M 9.15625 0 L 11.410156 0 L 11.410156 -2.339844 L 9.269531 -2.339844 C 7.277344 -2.339844 6.355469 -3.351562 6.355469 -5.515625 L 6.355469 -12.765625 L 11.207031 -12.765625 L 11.207031 -14.988281 L 6.355469 -14.988281 L 6.355469 -18.714844 L 4.476562 -18.714844 L 4.246094 -16.695312 C 4.074219 -15.335938 3.667969 -14.988281 2.28125 -14.988281 L 0.78125 -14.988281 L 0.78125 -12.765625 L 3.929688 -12.765625 L 3.929688 -5.402344 C 3.929688 -1.964844 5.835938 0 9.15625 0 Z M 9.15625 0 "/></g></g></g><g fill="#ffffff" fill-opacity="1"><g transform="translate(90.007783, 63.669903)"><g><path d="M 2.6875 0 L 5.113281 0 L 5.113281 -14.988281 L 2.6875 -14.988281 Z M 1.933594 -19.351562 C 1.933594 -18.28125 2.714844 -17.472656 3.898438 -17.472656 C 5.082031 -17.472656 5.835938 -18.28125 5.835938 -19.351562 C 5.835938 -20.449219 5.082031 -21.257812 3.898438 -21.257812 C 2.714844 -21.257812 1.933594 -20.449219 1.933594 -19.351562 Z M 1.933594 -19.351562 "/></g></g></g><g fill="#ffffff" fill-opacity="1"><g transform="translate(100.000224, 63.669903)"><g><path d="M 2.6875 0 L 5.113281 0 L 5.113281 -7.972656 C 5.113281 -11.0625 6.84375 -13.054688 9.445312 -13.054688 C 11.957031 -13.054688 13.546875 -11.148438 13.546875 -8.171875 L 13.546875 0 L 15.972656 0 L 15.972656 -7.972656 C 15.972656 -11.0625 17.703125 -13.054688 20.304688 -13.054688 C 22.816406 -13.054688 24.40625 -11.148438 24.40625 -8.171875 L 24.40625 0 L 26.832031 0 L 26.832031 -8.578125 C 26.832031 -12.765625 24.40625 -15.363281 20.621094 -15.363281 C 18.195312 -15.363281 16.230469 -14.324219 15.046875 -12.417969 C 14.035156 -14.355469 12.1875 -15.363281 9.789062 -15.363281 C 7.710938 -15.363281 6.035156 -14.585938 4.910156 -13.113281 L 4.679688 -14.988281 L 2.6875 -14.988281 Z M 2.6875 0 "/></g></g></g><g fill="#ffffff" fill-opacity="1"><g transform="translate(131.41969, 63.669903)"><g><path d="M 9.183594 0.375 C 12.5625 0.375 15.335938 -1.445312 16.550781 -4.359375 L 13.804688 -4.359375 C 12.882812 -2.773438 11.175781 -1.90625 9.214844 -1.90625 C 6.355469 -1.90625 4.332031 -3.695312 3.957031 -6.527344 L 16.925781 -6.527344 C 17.097656 -11.753906 14.007812 -15.363281 9.214844 -15.363281 C 4.679688 -15.363281 1.5 -12.128906 1.5 -7.507812 C 1.5 -2.859375 4.648438 0.375 9.183594 0.375 Z M 3.984375 -8.664062 C 4.417969 -11.320312 6.441406 -13.082031 9.214844 -13.082031 C 11.957031 -13.082031 13.980469 -11.410156 14.5 -8.664062 Z M 3.984375 -8.664062 "/></g></g></g><g fill="#ffffff" fill-opacity="1"><g transform="translate(151.981247, 63.669903)"><g><path d="M 8.117188 0.375 C 11.8125 0.375 14.210938 -1.328125 14.210938 -3.929688 C 14.210938 -6.265625 12.246094 -7.855469 8.460938 -8.605469 C 5.34375 -9.214844 4.273438 -9.820312 4.273438 -11.089844 C 4.273438 -12.417969 5.546875 -13.226562 7.710938 -13.226562 C 9.992188 -13.226562 11.351562 -12.332031 11.523438 -10.6875 L 13.921875 -10.6875 C 13.71875 -13.632812 11.378906 -15.363281 7.683594 -15.363281 C 4.074219 -15.363281 1.878906 -13.777344 1.878906 -11.089844 C 1.878906 -8.722656 3.695312 -7.277344 7.566406 -6.644531 C 10.484375 -6.152344 11.8125 -5.34375 11.8125 -3.984375 C 11.8125 -2.628906 10.425781 -1.789062 8.144531 -1.789062 C 5.574219 -1.789062 4.042969 -2.886719 3.957031 -4.707031 L 1.558594 -4.707031 C 1.617188 -1.644531 4.1875 0.375 8.117188 0.375 Z M 8.117188 0.375 "/></g></g></g><g fill="#041f60" fill-opacity="1"><g transform="translate(209.707004, 63.669903)"><g/></g></g><g fill="#041f60" fill-opacity="1"><g transform="translate(216.867132, 63.669903)"><g><path d="M 7.597656 0.230469 C 10.023438 0.230469 11.929688 -0.546875 13.285156 -2.078125 L 13.546875 0 L 15.539062 0 L 15.539062 -9.53125 C 15.539062 -12.996094 12.910156 -15.363281 8.980469 -15.363281 C 5.71875 -15.363281 3.261719 -13.601562 2.597656 -10.714844 L 5.054688 -10.714844 C 5.546875 -12.1875 7.074219 -13.113281 9.011719 -13.113281 C 11.550781 -13.113281 13.113281 -11.695312 13.113281 -9.359375 L 13.113281 -8.808594 L 6.988281 -8.808594 C 3.871094 -8.808594 1.820312 -7.046875 1.820312 -4.332031 C 1.820312 -1.5 3.984375 0.230469 7.597656 0.230469 Z M 4.246094 -4.359375 C 4.246094 -5.777344 5.402344 -6.671875 7.074219 -6.671875 L 13.140625 -6.671875 C 13.054688 -3.898438 10.800781 -1.933594 7.683594 -1.933594 C 5.574219 -1.933594 4.246094 -2.886719 4.246094 -4.359375 Z M 4.246094 -4.359375 "/></g></g></g><g fill="#041f60" fill-opacity="1"><g transform="translate(234.771105, 63.669903)"><g><path d="M 8.117188 0.375 C 11.8125 0.375 14.210938 -1.328125 14.210938 -3.929688 C 14.210938 -6.265625 12.246094 -7.855469 8.460938 -8.605469 C 5.34375 -9.214844 4.273438 -9.820312 4.273438 -11.089844 C 4.273438 -12.417969 5.546875 -13.226562 7.710938 -13.226562 C 9.992188 -13.226562 11.351562 -12.332031 11.523438 -10.6875 L 13.921875 -10.6875 C 13.71875 -13.632812 11.378906 -15.363281 7.683594 -15.363281 C 4.074219 -15.363281 1.878906 -13.777344 1.878906 -11.089844 C 1.878906 -8.722656 3.695312 -7.277344 7.566406 -6.644531 C 10.484375 -6.152344 11.8125 -5.34375 11.8125 -3.984375 C 11.8125 -2.628906 10.425781 -1.789062 8.144531 -1.789062 C 5.574219 -1.789062 4.042969 -2.886719 3.957031 -4.707031 L 1.558594 -4.707031 C 1.617188 -1.644531 4.1875 0.375 8.117188 0.375 Z M 8.117188 0.375 "/></g></g></g><g fill="#041f60" fill-opacity="1"><g transform="translate(250.538158, 63.669903)"><g><path d="M 10.859375 0.375 C 15.277344 0.375 18.484375 -2.945312 18.484375 -7.507812 C 18.484375 -12.042969 15.277344 -15.363281 10.859375 -15.363281 C 8.40625 -15.363281 6.324219 -14.355469 4.96875 -12.679688 L 4.679688 -14.988281 L 2.6875 -14.988281 L 2.6875 5.777344 L 5.113281 5.777344 L 5.113281 -2.136719 C 6.46875 -0.578125 8.492188 0.375 10.859375 0.375 Z M 5.023438 -7.507812 C 5.023438 -10.742188 7.308594 -13.054688 10.542969 -13.054688 C 13.804688 -13.054688 16.058594 -10.742188 16.058594 -7.507812 C 16.058594 -4.246094 13.804688 -1.964844 10.542969 -1.964844 C 7.308594 -1.964844 5.023438 -4.246094 5.023438 -7.507812 Z M 5.023438 -7.507812 "/></g></g></g><g fill="#041f60" fill-opacity="1"><g transform="translate(270.521311, 63.669903)"><g><path d="M 7.597656 0.230469 C 10.023438 0.230469 11.929688 -0.546875 13.285156 -2.078125 L 13.546875 0 L 15.539062 0 L 15.539062 -9.53125 C 15.539062 -12.996094 12.910156 -15.363281 8.980469 -15.363281 C 5.71875 -15.363281 3.261719 -13.601562 2.597656 -10.714844 L 5.054688 -10.714844 C 5.546875 -12.1875 7.074219 -13.113281 9.011719 -13.113281 C 11.550781 -13.113281 13.113281 -11.695312 13.113281 -9.359375 L 13.113281 -8.808594 L 6.988281 -8.808594 C 3.871094 -8.808594 1.820312 -7.046875 1.820312 -4.332031 C 1.820312 -1.5 3.984375 0.230469 7.597656 0.230469 Z M 4.246094 -4.359375 C 4.246094 -5.777344 5.402344 -6.671875 7.074219 -6.671875 L 13.140625 -6.671875 C 13.054688 -3.898438 10.800781 -1.933594 7.683594 -1.933594 C 5.574219 -1.933594 4.246094 -2.886719 4.246094 -4.359375 Z M 4.246094 -4.359375 "/></g></g></g><g fill="#041f60" fill-opacity="1"><g transform="translate(288.425284, 63.669903)"><g><path d="M 9.214844 0.375 C 12.96875 0.375 15.886719 -1.878906 16.894531 -5.515625 L 14.324219 -5.515625 C 13.574219 -3.351562 11.640625 -1.964844 9.214844 -1.964844 C 6.121094 -1.964844 3.929688 -4.246094 3.929688 -7.507812 C 3.929688 -10.742188 6.121094 -13.054688 9.214844 -13.054688 C 11.496094 -13.054688 13.371094 -11.8125 14.265625 -9.734375 L 16.722656 -9.734375 C 15.972656 -13.113281 12.9375 -15.363281 9.214844 -15.363281 C 4.707031 -15.363281 1.5 -12.074219 1.5 -7.507812 C 1.5 -2.917969 4.707031 0.375 9.214844 0.375 Z M 9.214844 0.375 "/></g></g></g><g fill="#041f60" fill-opacity="1"><g transform="translate(306.733539, 63.669903)"><g><path d="M 9.183594 0.375 C 12.5625 0.375 15.335938 -1.445312 16.550781 -4.359375 L 13.804688 -4.359375 C 12.882812 -2.773438 11.175781 -1.90625 9.214844 -1.90625 C 6.355469 -1.90625 4.332031 -3.695312 3.957031 -6.527344 L 16.925781 -6.527344 C 17.097656 -11.753906 14.007812 -15.363281 9.214844 -15.363281 C 4.679688 -15.363281 1.5 -12.128906 1.5 -7.507812 C 1.5 -2.859375 4.648438 0.375 9.183594 0.375 Z M 3.984375 -8.664062 C 4.417969 -11.320312 6.441406 -13.082031 9.214844 -13.082031 C 11.957031 -13.082031 13.980469 -11.410156 14.5 -8.664062 Z M 3.984375 -8.664062 "/></g></g></g><g fill="#e37682" fill-opacity="1"><g transform="translate(180.276939, 66.34179)"><g><path d="M 8.449219 -32.019531 L 8.449219 -29.027344 L 31.628906 -29.027344 L 31.628906 -17.765625 L 8.449219 -17.765625 L 8.449219 -14.816406 L 31.628906 -14.816406 L 31.628906 -3.507812 L 8.449219 -3.507812 L 8.449219 -0.519531 L 34.617188 -0.519531 L 34.617188 -32.019531 Z M 8.449219 -32.019531 "/></g></g></g><g fill="#e37682" fill-opacity="1"><g transform="translate(39.532353, 65.964676)"><g><path d="M 35.789062 -33.101562 L 30.070312 -21.878906 L 13.257812 -21.878906 L 7.539062 -33.101562 L 4.894531 -31.757812 L 21.578125 0.648438 L 21.75 0.648438 L 38.429688 -31.757812 Z M 14.816406 -18.933594 L 28.507812 -18.933594 L 21.707031 -5.589844 L 21.621094 -5.589844 Z M 14.816406 -18.933594 "/></g></g></g></svg>