<svg xmlns="http://www.w3.org/2000/svg" xmlns:xlink="http://www.w3.org/1999/xlink" width="500" zoomAndPan="magnify" viewBox="0 0 375 374.999991" height="500" preserveAspectRatio="xMidYMid meet" version="1.0"><defs><g/><clipPath id="f108385ff8"><path d="M 63.035156 152.328125 L 307.53125 152.328125 L 307.53125 222.828125 L 63.035156 222.828125 Z M 63.035156 152.328125 " clip-rule="nonzero"/></clipPath><clipPath id="3cc00ac272"><path d="M 76.558594 163.015625 L 185.308594 163.015625 L 185.308594 211.765625 L 76.558594 211.765625 Z M 76.558594 163.015625 " clip-rule="nonzero"/></clipPath></defs><rect x="-37.5" width="450" fill="#ffffff" y="-37.499999" height="449.999989" fill-opacity="1"/><rect x="-37.5" width="450" fill="#ffffff" y="-37.499999" height="449.999989" fill-opacity="1"/><rect x="-37.5" width="450" fill="#ffffff" y="-37.499999" height="449.999989" fill-opacity="1"/><g clip-path="url(#f108385ff8)"><path stroke-linecap="butt" transform="matrix(0.749928, 0, 0, 0.751749, 63.036372, 152.329898)" fill="none" stroke-linejoin="miter" d="M -0.00162164 -0.00235849 L 326.024438 -0.00235849 L 326.024438 93.778893 L -0.00162164 93.778893 L -0.00162164 -0.00235849 " stroke="#041f60" stroke-width="6" stroke-opacity="1" stroke-miterlimit="4"/></g><g clip-path="url(#3cc00ac272)"><path fill="#041f60" d="M 76.566406 163.015625 L 185.296875 163.015625 L 185.296875 211.765625 L 76.566406 211.765625 L 76.566406 163.015625 " fill-opacity="1" fill-rule="nonzero"/></g><g fill="#ffffff" fill-opacity="1"><g transform="translate(112.207657, 194.886066)"><g><path d="M 6.339844 0 L 7.898438 0 L 7.898438 -1.621094 L 6.417969 -1.621094 C 5.039062 -1.621094 4.398438 -2.320312 4.398438 -3.820312 L 4.398438 -8.835938 L 7.757812 -8.835938 L 7.757812 -10.378906 L 4.398438 -10.378906 L 4.398438 -12.957031 L 3.097656 -12.957031 L 2.9375 -11.558594 C 2.820312 -10.617188 2.539062 -10.378906 1.578125 -10.378906 L 0.539062 -10.378906 L 0.539062 -8.835938 L 2.71875 -8.835938 L 2.71875 -3.738281 C 2.71875 -1.359375 4.039062 0 6.339844 0 Z M 6.339844 0 "/></g></g></g><g fill="#ffffff" fill-opacity="1"><g transform="translate(122.604154, 194.886066)"><g><path d="M 1.859375 0 L 3.539062 0 L 3.539062 -10.378906 L 1.859375 -10.378906 Z M 1.339844 -13.398438 C 1.339844 -12.65625 1.878906 -12.097656 2.699219 -12.097656 C 3.519531 -12.097656 4.039062 -12.65625 4.039062 -13.398438 C 4.039062 -14.15625 3.519531 -14.714844 2.699219 -14.714844 C 1.878906 -14.714844 1.339844 -14.15625 1.339844 -13.398438 Z M 1.339844 -13.398438 "/></g></g></g><g fill="#ffffff" fill-opacity="1"><g transform="translate(129.522025, 194.886066)"><g><path d="M 1.859375 0 L 3.539062 0 L 3.539062 -5.519531 C 3.539062 -7.65625 4.738281 -9.039062 6.539062 -9.039062 C 8.277344 -9.039062 9.378906 -7.71875 9.378906 -5.660156 L 9.378906 0 L 11.058594 0 L 11.058594 -5.519531 C 11.058594 -7.65625 12.257812 -9.039062 14.054688 -9.039062 C 15.796875 -9.039062 16.894531 -7.71875 16.894531 -5.660156 L 16.894531 0 L 18.574219 0 L 18.574219 -5.9375 C 18.574219 -8.835938 16.894531 -10.636719 14.277344 -10.636719 C 12.597656 -10.636719 11.238281 -9.917969 10.417969 -8.597656 C 9.71875 -9.9375 8.4375 -10.636719 6.777344 -10.636719 C 5.339844 -10.636719 4.179688 -10.097656 3.398438 -9.078125 L 3.238281 -10.378906 L 1.859375 -10.378906 Z M 1.859375 0 "/></g></g></g><g fill="#ffffff" fill-opacity="1"><g transform="translate(151.274048, 194.886066)"><g><path d="M 6.359375 0.261719 C 8.699219 0.261719 10.617188 -1 11.457031 -3.019531 L 9.558594 -3.019531 C 8.917969 -1.917969 7.738281 -1.320312 6.378906 -1.320312 C 4.398438 -1.320312 3 -2.558594 2.738281 -4.519531 L 11.71875 -4.519531 C 11.835938 -8.136719 9.699219 -10.636719 6.378906 -10.636719 C 3.238281 -10.636719 1.039062 -8.398438 1.039062 -5.199219 C 1.039062 -1.980469 3.21875 0.261719 6.359375 0.261719 Z M 2.757812 -6 C 3.058594 -7.839844 4.457031 -9.058594 6.378906 -9.058594 C 8.277344 -9.058594 9.675781 -7.898438 10.039062 -6 Z M 2.757812 -6 "/></g></g></g><g fill="#ffffff" fill-opacity="1"><g transform="translate(165.509027, 194.886066)"><g><path d="M 5.617188 0.261719 C 8.179688 0.261719 9.835938 -0.917969 9.835938 -2.71875 C 9.835938 -4.339844 8.476562 -5.4375 5.859375 -5.957031 C 3.699219 -6.378906 2.960938 -6.796875 2.960938 -7.679688 C 2.960938 -8.597656 3.839844 -9.15625 5.339844 -9.15625 C 6.917969 -9.15625 7.859375 -8.539062 7.976562 -7.398438 L 9.636719 -7.398438 C 9.496094 -9.4375 7.878906 -10.636719 5.320312 -10.636719 C 2.820312 -10.636719 1.300781 -9.539062 1.300781 -7.679688 C 1.300781 -6.039062 2.558594 -5.039062 5.238281 -4.597656 C 7.257812 -4.257812 8.179688 -3.699219 8.179688 -2.757812 C 8.179688 -1.820312 7.21875 -1.238281 5.636719 -1.238281 C 3.859375 -1.238281 2.800781 -2 2.738281 -3.257812 L 1.078125 -3.257812 C 1.121094 -1.140625 2.898438 0.261719 5.617188 0.261719 Z M 5.617188 0.261719 "/></g></g></g><g fill="#041f60" fill-opacity="1"><g transform="translate(205.47317, 194.886066)"><g/></g></g><g fill="#041f60" fill-opacity="1"><g transform="translate(210.430201, 194.886066)"><g><path d="M 5.257812 0.160156 C 6.9375 0.160156 8.257812 -0.378906 9.199219 -1.441406 L 9.378906 0 L 10.757812 0 L 10.757812 -6.597656 C 10.757812 -8.996094 8.9375 -10.636719 6.21875 -10.636719 C 3.960938 -10.636719 2.257812 -9.417969 1.800781 -7.417969 L 3.5 -7.417969 C 3.839844 -8.4375 4.898438 -9.078125 6.238281 -9.078125 C 7.996094 -9.078125 9.078125 -8.097656 9.078125 -6.476562 L 9.078125 -6.097656 L 4.839844 -6.097656 C 2.679688 -6.097656 1.257812 -4.878906 1.257812 -3 C 1.257812 -1.039062 2.757812 0.160156 5.257812 0.160156 Z M 2.9375 -3.019531 C 2.9375 -4 3.738281 -4.617188 4.898438 -4.617188 L 9.097656 -4.617188 C 9.039062 -2.699219 7.476562 -1.339844 5.320312 -1.339844 C 3.859375 -1.339844 2.9375 -2 2.9375 -3.019531 Z M 2.9375 -3.019531 "/></g></g></g><g fill="#041f60" fill-opacity="1"><g transform="translate(222.825308, 194.886066)"><g><path d="M 5.617188 0.261719 C 8.179688 0.261719 9.835938 -0.917969 9.835938 -2.71875 C 9.835938 -4.339844 8.476562 -5.4375 5.859375 -5.957031 C 3.699219 -6.378906 2.960938 -6.796875 2.960938 -7.679688 C 2.960938 -8.597656 3.839844 -9.15625 5.339844 -9.15625 C 6.917969 -9.15625 7.859375 -8.539062 7.976562 -7.398438 L 9.636719 -7.398438 C 9.496094 -9.4375 7.878906 -10.636719 5.320312 -10.636719 C 2.820312 -10.636719 1.300781 -9.539062 1.300781 -7.679688 C 1.300781 -6.039062 2.558594 -5.039062 5.238281 -4.597656 C 7.257812 -4.257812 8.179688 -3.699219 8.179688 -2.757812 C 8.179688 -1.820312 7.21875 -1.238281 5.636719 -1.238281 C 3.859375 -1.238281 2.800781 -2 2.738281 -3.257812 L 1.078125 -3.257812 C 1.121094 -1.140625 2.898438 0.261719 5.617188 0.261719 Z M 5.617188 0.261719 "/></g></g></g><g fill="#041f60" fill-opacity="1"><g transform="translate(233.741002, 194.886066)"><g><path d="M 7.519531 0.261719 C 10.578125 0.261719 12.796875 -2.039062 12.796875 -5.199219 C 12.796875 -8.339844 10.578125 -10.636719 7.519531 -10.636719 C 5.820312 -10.636719 4.378906 -9.9375 3.4375 -8.777344 L 3.238281 -10.378906 L 1.859375 -10.378906 L 1.859375 4 L 3.539062 4 L 3.539062 -1.480469 C 4.480469 -0.398438 5.878906 0.261719 7.519531 0.261719 Z M 3.480469 -5.199219 C 3.480469 -7.4375 5.058594 -9.039062 7.296875 -9.039062 C 9.558594 -9.039062 11.117188 -7.4375 11.117188 -5.199219 C 11.117188 -2.9375 9.558594 -1.359375 7.296875 -1.359375 C 5.058594 -1.359375 3.480469 -2.9375 3.480469 -5.199219 Z M 3.480469 -5.199219 "/></g></g></g><g fill="#041f60" fill-opacity="1"><g transform="translate(247.575546, 194.886066)"><g><path d="M 5.257812 0.160156 C 6.9375 0.160156 8.257812 -0.378906 9.199219 -1.441406 L 9.378906 0 L 10.757812 0 L 10.757812 -6.597656 C 10.757812 -8.996094 8.9375 -10.636719 6.21875 -10.636719 C 3.960938 -10.636719 2.257812 -9.417969 1.800781 -7.417969 L 3.5 -7.417969 C 3.839844 -8.4375 4.898438 -9.078125 6.238281 -9.078125 C 7.996094 -9.078125 9.078125 -8.097656 9.078125 -6.476562 L 9.078125 -6.097656 L 4.839844 -6.097656 C 2.679688 -6.097656 1.257812 -4.878906 1.257812 -3 C 1.257812 -1.039062 2.757812 0.160156 5.257812 0.160156 Z M 2.9375 -3.019531 C 2.9375 -4 3.738281 -4.617188 4.898438 -4.617188 L 9.097656 -4.617188 C 9.039062 -2.699219 7.476562 -1.339844 5.320312 -1.339844 C 3.859375 -1.339844 2.9375 -2 2.9375 -3.019531 Z M 2.9375 -3.019531 "/></g></g></g><g fill="#041f60" fill-opacity="1"><g transform="translate(259.970653, 194.886066)"><g><path d="M 6.378906 0.261719 C 8.976562 0.261719 10.996094 -1.300781 11.695312 -3.820312 L 9.917969 -3.820312 C 9.398438 -2.320312 8.058594 -1.359375 6.378906 -1.359375 C 4.238281 -1.359375 2.71875 -2.9375 2.71875 -5.199219 C 2.71875 -7.4375 4.238281 -9.039062 6.378906 -9.039062 C 7.957031 -9.039062 9.257812 -8.179688 9.878906 -6.738281 L 11.578125 -6.738281 C 11.058594 -9.078125 8.957031 -10.636719 6.378906 -10.636719 C 3.257812 -10.636719 1.039062 -8.359375 1.039062 -5.199219 C 1.039062 -2.019531 3.257812 0.261719 6.378906 0.261719 Z M 6.378906 0.261719 "/></g></g></g><g fill="#041f60" fill-opacity="1"><g transform="translate(272.645648, 194.886066)"><g><path d="M 6.359375 0.261719 C 8.699219 0.261719 10.617188 -1 11.457031 -3.019531 L 9.558594 -3.019531 C 8.917969 -1.917969 7.738281 -1.320312 6.378906 -1.320312 C 4.398438 -1.320312 3 -2.558594 2.738281 -4.519531 L 11.71875 -4.519531 C 11.835938 -8.136719 9.699219 -10.636719 6.378906 -10.636719 C 3.238281 -10.636719 1.039062 -8.398438 1.039062 -5.199219 C 1.039062 -1.980469 3.21875 0.261719 6.359375 0.261719 Z M 2.757812 -6 C 3.058594 -7.839844 4.457031 -9.058594 6.378906 -9.058594 C 8.277344 -9.058594 9.675781 -7.898438 10.039062 -6 Z M 2.757812 -6 "/></g></g></g><g fill="#ec8fd0" fill-opacity="1"><g transform="translate(185.093913, 196.761066)"><g><path d="M 5.851562 -22.171875 L 5.851562 -20.101562 L 21.898438 -20.101562 L 21.898438 -12.300781 L 5.851562 -12.300781 L 5.851562 -10.261719 L 21.898438 -10.261719 L 21.898438 -2.429688 L 5.851562 -2.429688 L 5.851562 -0.359375 L 23.96875 -0.359375 L 23.96875 -22.171875 Z M 5.851562 -22.171875 "/></g></g></g><g fill="#ffa0dc" fill-opacity="1"><g transform="translate(87.660342, 196.499987)"><g><path d="M 24.78125 -22.921875 L 20.820312 -15.148438 L 9.179688 -15.148438 L 5.21875 -22.921875 L 3.390625 -21.988281 L 14.941406 0.449219 L 15.058594 0.449219 L 26.609375 -21.988281 Z M 10.261719 -13.109375 L 19.738281 -13.109375 L 15.03125 -3.871094 L 14.96875 -3.871094 Z M 10.261719 -13.109375 "/></g></g></g></svg>